<?xml version="1.0" encoding="UTF-8" standalone="no"?>
<svg
   xmlns:dc="http://purl.org/dc/elements/1.1/"
   xmlns:cc="http://creativecommons.org/ns#"
   xmlns:rdf="http://www.w3.org/1999/02/22-rdf-syntax-ns#"
   xmlns:svg="http://www.w3.org/2000/svg"
   xmlns="http://www.w3.org/2000/svg"
   xmlns:sodipodi="http://sodipodi.sourceforge.net/DTD/sodipodi-0.dtd"
   xmlns:inkscape="http://www.inkscape.org/namespaces/inkscape"
   inkscape:version="1.0 (4035a4fb49, 2020-05-01)"
   sodipodi:docname="hand-holding-heart-solid.svg"
   id="svg4"
   version="1.1"
   viewBox="0 0 576 512"
   role="img"
   class="svg-inline--fa fa-hand-holding-heart fa-w-18"
   data-icon="hand-holding-heart"
   data-prefix="fas"
   focusable="false"
   aria-hidden="true">
  <metadata
     id="metadata10">
    <rdf:RDF>
      <cc:Work
         rdf:about="">
        <dc:format>image/svg+xml</dc:format>
        <dc:type
           rdf:resource="http://purl.org/dc/dcmitype/StillImage" />
      </cc:Work>
    </rdf:RDF>
  </metadata>
  <defs
     id="defs8" />
  <sodipodi:namedview
     inkscape:current-layer="svg4"
     inkscape:window-maximized="1"
     inkscape:window-y="-8"
     inkscape:window-x="-8"
     inkscape:cy="256"
     inkscape:cx="486.70968"
     inkscape:zoom="0.96875"
     showgrid="false"
     id="namedview6"
     inkscape:window-height="706"
     inkscape:window-width="1024"
     inkscape:pageshadow="2"
     inkscape:pageopacity="0"
     guidetolerance="10"
     gridtolerance="10"
     objecttolerance="10"
     borderopacity="1"
     bordercolor="#666666"
     pagecolor="#ffffff" />
  <path
     style="stroke-width:0.999999;fill:#f0dd0a;fill-opacity:1"
     id="path2"
     d="m 275.3,250.5 c 7,7.4 18.4,7.4 25.5,0 L 409.7,136.3 C 441.3,103.1 439.5,48.1 404.1,17.5 373.3,-9.2000001 327.4,-4.3999999 299.2,25.2 L 288,36.9 276.9,25.3 C 248.7,-4.3999999 202.8,-9.2000001 172,17.5 c -35.3,30.6 -37.2,85.6 -5.6,118.8 z m 290,77.6 c -11.8,-10.7 -30.2,-10 -42.6,0 L 430.3,402 c -11.3,9.1 -25.4,14 -40,14 H 272 c -8.8,0 -16,-7.2 -16,-16 0,-8.8 7.2,-16 16,-16 h 78.3 c 15.9,0 30.7,-10.9 33.3,-26.6 C 386.9,337.4 371.5,320 352,320 H 192 c -27,0 -53.1,9.3 -74.1,26.3 L 71.4,384 H 16 c -8.8,0 -16,7.2 -16,16 v 96 c 0,8.8 7.2,16 16,16 h 356.8 c 14.5,0 28.6,-4.9 40,-14 L 564,377 c 15.2,-12.1 16.4,-35.3 1.3,-48.9 z"
     fill="currentColor" />
</svg>
