<?xml version="1.0" encoding="UTF-8" standalone="no"?>
<svg
   xmlns:dc="http://purl.org/dc/elements/1.1/"
   xmlns:cc="http://creativecommons.org/ns#"
   xmlns:rdf="http://www.w3.org/1999/02/22-rdf-syntax-ns#"
   xmlns:svg="http://www.w3.org/2000/svg"
   xmlns="http://www.w3.org/2000/svg"
   xmlns:sodipodi="http://sodipodi.sourceforge.net/DTD/sodipodi-0.dtd"
   xmlns:inkscape="http://www.inkscape.org/namespaces/inkscape"
   inkscape:version="1.0 (4035a4fb49, 2020-05-01)"
   sodipodi:docname="facebook.svg"
   id="svg4"
   version="1.1"
   fill="none"
   height="32"
   width="32">
  <metadata
     id="metadata10">
    <rdf:RDF>
      <cc:Work
         rdf:about="">
        <dc:format>image/svg+xml</dc:format>
        <dc:type
           rdf:resource="http://purl.org/dc/dcmitype/StillImage" />
      </cc:Work>
    </rdf:RDF>
  </metadata>
  <defs
     id="defs8" />
  <sodipodi:namedview
     inkscape:current-layer="svg4"
     inkscape:window-maximized="1"
     inkscape:window-y="-8"
     inkscape:window-x="-8"
     inkscape:cy="16"
     inkscape:cx="16"
     inkscape:zoom="15.5"
     showgrid="false"
     id="namedview6"
     inkscape:window-height="705"
     inkscape:window-width="1024"
     inkscape:pageshadow="2"
     inkscape:pageopacity="0"
     guidetolerance="10"
     gridtolerance="10"
     objecttolerance="10"
     borderopacity="1"
     bordercolor="#666666"
     pagecolor="#ffffff" />
  <path
     style="fill:#f0d215;fill-opacity:1"
     id="path2"
     fill="#FEC63E"
     d="M12.276 31.597c0 .223.18.403.403.403h5.745c.223 0 .403-.18.403-.403V15.874h4.165c.21 0 .384-.16.402-.37l.4-4.736a.403.403 0 0 0-.401-.437h-4.566V6.97c0-.788.638-1.427 1.426-1.427h3.21c.223 0 .403-.18.403-.403V.403A.403.403 0 0 0 23.463 0H18.04a5.763 5.763 0 0 0-5.763 5.763v4.568H9.403a.403.403 0 0 0-.403.402v4.738c0 .223.18.403.403.403h2.873v15.723z"
     clip-rule="evenodd"
     fill-rule="evenodd" />
</svg>
