<?xml version="1.0" encoding="UTF-8" standalone="no"?>
<svg
   xmlns:dc="http://purl.org/dc/elements/1.1/"
   xmlns:cc="http://creativecommons.org/ns#"
   xmlns:rdf="http://www.w3.org/1999/02/22-rdf-syntax-ns#"
   xmlns:svg="http://www.w3.org/2000/svg"
   xmlns="http://www.w3.org/2000/svg"
   xmlns:sodipodi="http://sodipodi.sourceforge.net/DTD/sodipodi-0.dtd"
   xmlns:inkscape="http://www.inkscape.org/namespaces/inkscape"
   inkscape:version="1.0 (4035a4fb49, 2020-05-01)"
   sodipodi:docname="lightbulb-solid.svg"
   id="svg4"
   version="1.1"
   viewBox="0 0 352 512"
   role="img"
   class="svg-inline--fa fa-lightbulb fa-w-11"
   data-icon="lightbulb"
   data-prefix="fas"
   focusable="false"
   aria-hidden="true">
  <metadata
     id="metadata10">
    <rdf:RDF>
      <cc:Work
         rdf:about="">
        <dc:format>image/svg+xml</dc:format>
        <dc:type
           rdf:resource="http://purl.org/dc/dcmitype/StillImage" />
      </cc:Work>
    </rdf:RDF>
  </metadata>
  <defs
     id="defs8" />
  <sodipodi:namedview
     inkscape:current-layer="svg4"
     inkscape:window-maximized="1"
     inkscape:window-y="-8"
     inkscape:window-x="-8"
     inkscape:cy="256"
     inkscape:cx="374.70968"
     inkscape:zoom="0.96875"
     showgrid="false"
     id="namedview6"
     inkscape:window-height="706"
     inkscape:window-width="1024"
     inkscape:pageshadow="2"
     inkscape:pageopacity="0"
     guidetolerance="10"
     gridtolerance="10"
     objecttolerance="10"
     borderopacity="1"
     bordercolor="#666666"
     pagecolor="#ffffff" />
  <path
     style="stroke-width:1;fill:#f0dd0a;fill-opacity:1"
     id="path2"
     d="m 96.06,454.35 c 0.01,6.29 1.87,12.45 5.36,17.69 l 17.09,25.69 a 31.99,31.99 0 0 0 26.64,14.28 h 61.71 a 31.99,31.99 0 0 0 26.64,-14.28 l 17.09,-25.69 a 31.989,31.989 0 0 0 5.36,-17.69 L 255.99,416 H 96.01 Z M 0,176 c 0,44.37 16.45,84.85 43.56,115.78 16.52,18.85 42.36,58.23 52.21,91.45 0.04,0.26 0.07,0.52 0.11,0.78 h 160.24 c 0.04,-0.26 0.07,-0.51 0.11,-0.78 9.85,-33.22 35.69,-72.6 52.21,-91.45 C 335.55,260.85 352,220.37 352,176 352,78.610002 272.91,-0.3 175.45,0 73.44,0.31 0,82.97 0,176 Z M 176,96 c -44.11,0 -80,35.89 -80,80 0,8.84 -7.16,16 -16,16 -8.84,0 -16,-7.16 -16,-16 0,-61.76 50.24,-112.000003 112,-112.000003 8.84,0 16,7.160001 16,16.000002 C 192,88.839999 184.84,96 176,96 Z"
     fill="currentColor" />
</svg>
