<?xml version="1.0" encoding="UTF-8" standalone="no"?>
<svg
   width="32"
   height="32"
   fill="none"
   version="1.1"
   id="svg4"
   sodipodi:docname="instagram-hover.svg"
   inkscape:version="1.1 (c68e22c387, 2021-05-23)"
   xmlns:inkscape="http://www.inkscape.org/namespaces/inkscape"
   xmlns:sodipodi="http://sodipodi.sourceforge.net/DTD/sodipodi-0.dtd"
   xmlns="http://www.w3.org/2000/svg"
   xmlns:svg="http://www.w3.org/2000/svg"
   xmlns:rdf="http://www.w3.org/1999/02/22-rdf-syntax-ns#"
   xmlns:cc="http://creativecommons.org/ns#"
   xmlns:dc="http://purl.org/dc/elements/1.1/">
  <metadata
     id="metadata10">
    <rdf:RDF>
      <cc:Work
         rdf:about="">
        <dc:format>image/svg+xml</dc:format>
        <dc:type
           rdf:resource="http://purl.org/dc/dcmitype/StillImage" />
      </cc:Work>
    </rdf:RDF>
  </metadata>
  <defs
     id="defs8" />
  <sodipodi:namedview
     inkscape:document-rotation="0"
     pagecolor="#ffffff"
     bordercolor="#666666"
     borderopacity="1"
     objecttolerance="10"
     gridtolerance="10"
     guidetolerance="10"
     inkscape:pageopacity="0"
     inkscape:pageshadow="2"
     inkscape:window-width="1366"
     inkscape:window-height="705"
     id="namedview6"
     showgrid="false"
     inkscape:zoom="15.5"
     inkscape:cx="3.5806452"
     inkscape:cy="16.032258"
     inkscape:window-x="-8"
     inkscape:window-y="-8"
     inkscape:window-maximized="1"
     inkscape:current-layer="svg4"
     inkscape:pagecheckerboard="0" />
  <path
     d="m 28.981,22.361 a 6.62,6.62 0 0 1 -6.62,6.62 H 9.639 a 6.62,6.62 0 0 1 -6.62,-6.62 V 9.638 a 6.62,6.62 0 0 1 6.62,-6.62 h 12.722 a 6.62,6.62 0 0 1 6.62,6.62 z M 32,9.638 C 32,4.315 27.684,0 22.36,0 H 9.64 C 4.315,0 0,4.315 0,9.638 V 22.361 C 0,27.684 4.316,32 9.64,32 H 22.36 A 9.64,9.64 0 0 0 32,22.36 Z m -15.946,11.63 a 5.068,5.068 0 0 1 -5.062,-5.062 5.068,5.068 0 0 1 5.062,-5.062 5.067,5.067 0 0 1 5.062,5.062 5.067,5.067 0 0 1 -5.062,5.062 z m 0,-12.964 c -4.357,0 -7.902,3.545 -7.902,7.902 0,4.358 3.545,7.902 7.902,7.902 4.358,0 7.903,-3.544 7.903,-7.902 0,-4.357 -3.545,-7.902 -7.903,-7.902 z m 8.364,-2.413 a 1.8815,1.8815 0 1 0 0,3.763 1.8815,1.8815 0 0 0 0,-3.763 z"
     fill="#fec63e"
     id="path2"
     style="stroke-width:1;fill:#ffffff;fill-opacity:1" />
</svg>
