<?xml version="1.0" encoding="UTF-8" standalone="no"?>
<svg
   inkscape:version="1.1 (c68e22c387, 2021-05-23)"
   sodipodi:docname="youtube-hover.svg"
   id="svg4"
   version="1.1"
   width="682pt"
   viewBox="-21 -117 682.66672 682"
   height="682pt"
   xmlns:inkscape="http://www.inkscape.org/namespaces/inkscape"
   xmlns:sodipodi="http://sodipodi.sourceforge.net/DTD/sodipodi-0.dtd"
   xmlns="http://www.w3.org/2000/svg"
   xmlns:svg="http://www.w3.org/2000/svg"
   xmlns:rdf="http://www.w3.org/1999/02/22-rdf-syntax-ns#"
   xmlns:cc="http://creativecommons.org/ns#"
   xmlns:dc="http://purl.org/dc/elements/1.1/">
  <metadata
     id="metadata10">
    <rdf:RDF>
      <cc:Work
         rdf:about="">
        <dc:format>image/svg+xml</dc:format>
        <dc:type
           rdf:resource="http://purl.org/dc/dcmitype/StillImage" />
      </cc:Work>
    </rdf:RDF>
  </metadata>
  <defs
     id="defs8" />
  <sodipodi:namedview
     inkscape:document-rotation="0"
     pagecolor="#ffffff"
     bordercolor="#666666"
     borderopacity="1"
     objecttolerance="10"
     gridtolerance="10"
     guidetolerance="10"
     inkscape:pageopacity="0"
     inkscape:pageshadow="2"
     inkscape:window-width="1366"
     inkscape:window-height="705"
     id="namedview6"
     showgrid="false"
     inkscape:zoom="0.5"
     inkscape:cx="335"
     inkscape:cy="427"
     inkscape:window-x="-8"
     inkscape:window-y="-8"
     inkscape:window-maximized="1"
     inkscape:current-layer="svg4"
     inkscape:pagecheckerboard="0"
     inkscape:document-units="pt" />
  <path
     d="M 626.8125,64.035158 C 619.4375,36.617188 597.82031,15.003906 570.40625,7.6210941 520.32422,-6.082031 319.99219,-6.082031 319.99219,-6.082031 c 0,0 -200.32422,0 -250.406252,13.1835932 C 42.699219,14.476562 20.554688,36.621094 13.179688,64.035158 0,114.11328 0,217.96875 0,217.96875 c 0,0 0,104.3789 13.179688,153.93359 C 20.5625,399.3164 42.171875,420.92969 69.589844,428.3125 120.19531,442.01953 320,442.01953 320,442.01953 c 0,0 200.32422,0 250.40625,-13.18359 27.41797,-7.37891 49.03125,-28.99219 56.41406,-56.40625 13.17578,-50.08204 13.17578,-153.93359 13.17578,-153.93359 0,0 0.52735,-104.38282 -13.18359,-154.460942 z M 256.21094,313.91406 V 122.02344 l 166.58593,95.94531 z m 0,0"
     id="path2"
     style="stroke-width:1;fill:#3c5487;fill-opacity:1" />
  <path
     style="fill:#ffffff;fill-opacity:1"
     d="m 370,446.8534 c 0,-79.81653 0.35204,-126.39702 0.95368,-126.18673 2.35467,0.82301 218.0346,125.40022 218.04012,125.94046 0.003,0.33392 -41.2813,24.38256 -91.7438,53.44143 -50.4625,29.05887 -99.7375,57.4447 -109.5,63.07961 L 370,573.37348 Z"
     id="path4339"
     transform="matrix(0.75073321,0,0,0.75073321,-21,-117.33336)" />
  <path
     style="fill:#ffffff;fill-opacity:1"
     d="M 370,446.95702 C 370,377.40566 370.24139,320.5 370.53642,320.5 c 0.29503,0 40.90753,23.2536 90.25,51.67468 49.34247,28.42107 98.3752,56.65857 108.96161,62.75 10.58642,6.09143 19.24892,11.35853 19.25,11.70468 0.002,0.54059 -39.06884,23.17772 -190.74803,110.51774 L 370,573.41404 Z"
     id="path4489"
     transform="matrix(0.75073321,0,0,0.75073321,-21,-117.33336)" />
  <path
     style="fill:#ffffff;fill-opacity:1"
     d="m 370,446.97457 c 0,-100.94449 0.25401,-126.58937 1.25,-126.20046 1.07175,0.4185 76.1882,43.60076 187.49479,107.78533 16.63463,9.59231 30.24713,17.71865 30.25,18.05854 0.003,0.33988 -5.05729,3.54503 -11.24479,7.12255 -6.1875,3.57753 -54,31.13107 -106.25,61.23011 -52.25,30.09903 -96.4625,55.61808 -98.25,56.709 l -3.25,1.98348 z"
     id="path4528"
     transform="matrix(0.75073321,0,0,0.75073321,-21,-117.33336)" />
  <path
     style="fill:#3c5487;fill-opacity:1"
     d="M 370,447.08156 C 370,377.4617 370.24319,320.5 370.54042,320.5 c 0.63764,0 3.63356,1.71537 114.45958,65.53594 108.04413,62.21859 103.97093,59.84426 103.98669,60.61547 0.0118,0.5791 -30.10879,18.04899 -173.48669,100.6219 -21.45,12.35329 -40.4625,23.34461 -42.25,24.42517 l -3.25,1.96464 z"
     id="path4567"
     transform="matrix(0.75073321,0,0,0.75073321,-21,-117.33336)" />
  <path
     style="fill:#ffffff;fill-opacity:1"
     d="M 376,743.89772 C 233.31405,741.02831 148.20035,734.78448 116.80775,724.88373 80.187754,713.33434 54.186205,684.73573 44.632909,645.5 23.077898,556.97279 23.930213,323.20957 46.105918,241.5 50.840598,224.05439 63.168782,204.01193 77.096883,191.11664 92.561845,176.79846 109.1397,168.42272 130.54049,164.115 195.39567,151.06042 429.6306,144.95866 613.5,151.53403 c 96.02451,3.43393 156.50957,9.27316 180.36584,17.41252 26.97842,9.20458 50.0282,29.97893 62.28668,56.13785 13.42804,28.65468 21.72572,98.60737 23.47644,197.9156 1.64835,93.50131 -6.91971,198.43936 -19.21141,235.29333 -9.94925,29.83066 -33.91368,54.44946 -64.04043,65.78914 -24.23213,9.12095 -83.37258,14.48872 -203.37712,18.45913 -29.93162,0.99031 -186.52692,1.96893 -217,1.35612 z M 480.46552,511.08026 C 540.94656,476.2249 590.56754,447.29737 590.73438,446.79687 590.96642,446.10074 373.94199,320.18776 369.88832,318.66667 369.37345,318.47347 369,372.17915 369,446.41667 c 0,70.44583 0.3375,128.0729 0.75,128.06015 0.4125,-0.0127 50.23448,-28.5412 110.71552,-63.39656 z"
     id="path4754"
     transform="matrix(0.75073321,0,0,0.75073321,-21,-117.33336)" />
  <path
     style="fill:#ffffff;fill-opacity:1"
     d="M 333,742.4207 C 216.49181,739.05945 145.74364,733.15086 117.4811,724.42145 84.474108,714.22663 59.5415,689.2018 48.028024,654.7115 38.10116,624.97412 31.673567,563.31204 30.100348,482.72525 28.146169,382.62405 34.096943,291.88477 45.625034,246 54.86028,209.24134 82.780899,179.16639 117.97972,168.06251 142.69995,160.26422 198.6066,155.38334 310,151.29835 c 46.28398,-1.69731 240.6713,-1.69839 286,-0.002 118.16761,4.42341 174.48702,9.83281 200.24481,19.23324 29.1269,10.63 54.07107,36.51576 63.57035,65.97 12.32103,38.20361 19.18313,113.53445 19.17505,210.5 -0.008,90.67577 -7.84939,177.39343 -19.05301,210.69472 -10.5886,31.47324 -38.47317,58.62864 -69.4372,67.62147 -24.03031,6.97907 -66.30334,11.12801 -155,15.21267 -56.85821,2.61843 -238.03882,3.75153 -302.5,1.89184 z M 422.80271,544.85178 C 533.538,481.34545 591.00331,447.81705 590.99368,446.72 c -0.003,-0.396 -1.24098,-1.43416 -2.75,-2.30702 C 586.73465,443.54012 567.95,432.56733 546.5,420.029 452.11909,364.85984 371.50542,318.5 369.95439,318.5 369.35351,318.5 369,365.91122 369,446.5 c 0,88.93959 0.32125,128 1.05271,128 0.57899,0 24.31649,-13.3417 52.75,-29.64822 z"
     id="path4793"
     transform="matrix(0.75073321,0,0,0.75073321,-21,-117.33336)" />
  <path
     style="fill:#ffffff;fill-opacity:1"
     d="M 332,742.42398 C 217.58706,739.13736 145.5541,733.09231 117.4811,724.42145 84.432754,714.21385 58.394092,687.92838 47.720892,654 36.170674,617.28373 29.936524,545.32559 29.873918,448 29.802429,336.86712 37.875029,257.73438 52.427667,226.91387 66.187294,197.77284 89.090436,177.17579 117.80775,168.11683 142.75725,160.24644 198.9413,155.32772 310,151.29108 c 46.10971,-1.67595 240.93144,-1.68401 285.5,-0.0118 126.08616,4.7307 179.3998,10.21142 205.65552,21.14171 21.51162,8.95531 42.13496,28.608 53.07713,50.57903 12.84321,25.78816 20.39516,77.40582 23.84782,163 1.30988,32.47293 0.70818,118.08825 -1.01202,144 -4.18795,63.08402 -10.02042,106.5587 -17.13125,127.69472 -10.20828,30.34279 -36.09281,56.36528 -66.45831,66.81254 -26.97749,9.28162 -112.23024,15.86681 -232.97889,17.99603 -60.51775,1.06714 -190.15649,1.02215 -228.5,-0.0793 z m 90.24016,-197.28846 c 58.8619,-33.71937 125.14521,-72.06041 151.14424,-87.42816 17.64869,-10.43194 17.85602,-10.59426 15.73066,-12.31528 -3.78603,-3.06574 -202.41485,-118.46313 -214.08332,-124.376 -2.63348,-1.33448 -5.06796,-2.14653 -5.40995,-1.80454 -0.84216,0.84216 -0.79758,253.77934 0.0449,254.62179 0.36666,0.36667 0.81224,0.66667 0.99016,0.66667 0.17792,0 23.39042,-13.21402 51.58333,-29.36448 z"
     id="path4832"
     transform="matrix(0.75073321,0,0,0.75073321,-21,-117.33336)" />
</svg>
